<svg xmlns="http://www.w3.org/2000/svg" width="1200" height="630" viewBox="0 0 1200 630"><rect width="1200" height="630" fill="#f8f8f8"/><g fill="none" stroke="#7b4dff" stroke-width="1.2" opacity=".18"><line x1="1000" x2="1090" y1="92" y2="150"/><line x1="1090" x2="1020" y1="150" y2="214"/><line x1="1020" x2="1140" y1="214" y2="250"/><line x1="1000" x2="1020" y1="92" y2="214"/><line x1="1020" x2="1078" y1="214" y2="312"/><line x1="932" x2="1020" y1="262" y2="214"/><line x1="900" x2="1000" y1="120" y2="92"/></g><g fill="#7b4dff" opacity=".42"><circle cx="900" cy="120" r="5"/><circle cx="1000" cy="92" r="7"/><circle cx="1090" cy="150" r="5"/><circle cx="1140" cy="250" r="6"/><circle cx="1020" cy="214" r="9"/><circle cx="932" cy="262" r="5"/><circle cx="1078" cy="312" r="4"/></g><text x="80" y="112" fill="#7b4dff" font-family="Menlo, monospace" font-size="22" letter-spacing="3">AI-NATIVE PRODUCT STUDIO</text><text x="76" y="352" fill="#0b1020" font-family="Helvetica Neue, Helvetica, Arial, sans-serif" font-size="104" font-weight="700" letter-spacing="-2">Put AI to work.</text><text x="80" y="430" fill="#5f5f5f" font-family="Helvetica Neue, Helvetica, Arial, sans-serif" font-size="33" font-weight="400">Find the right opportunity. Build the first solution.</text><text x="80" y="474" fill="#5f5f5f" font-family="Helvetica Neue, Helvetica, Arial, sans-serif" font-size="33" font-weight="400">Get your team using it.</text><rect width="16" height="16" x="80" y="540" fill="#7b4dff"/><text x="108" y="556" fill="#0b1020" font-family="Helvetica Neue, Helvetica, Arial, sans-serif" font-size="30" font-weight="700">Remedys.ai</text></svg>